<svg width="27" height="23" viewBox="0 0 27 23" fill="none" xmlns="http://www.w3.org/2000/svg">
<path d="M21.9665 12.893H4.08353C3.00092 12.8917 1.96302 12.461 1.1975 11.6955C0.431976 10.9299 0.001323 9.89202 0 8.80938L0 0.960113C0 0.858544 0.040347 0.761136 0.112165 0.689316C0.183983 0.617496 0.28139 0.577148 0.382956 0.577148H25.668C25.7696 0.577148 25.867 0.617496 25.9388 0.689316C26.0107 0.761136 26.051 0.858544 26.051 0.960113V8.80938C26.0497 9.89219 25.6189 10.9303 24.8531 11.6958C24.0874 12.4614 23.0493 12.8919 21.9665 12.893ZM0.768911 1.34308V8.80938C0.76997 9.68923 1.11995 10.5327 1.74208 11.1549C2.36421 11.777 3.2077 12.127 4.08753 12.1281H21.9705C22.8503 12.127 23.6938 11.777 24.3159 11.1549C24.938 10.5327 25.288 9.68923 25.2891 8.80938V1.33908L0.768911 1.34308Z" fill="#555555"/>
<path d="M22.6386 12.683C22.5883 12.6832 22.5384 12.6733 22.4919 12.6541C22.4454 12.6349 22.4031 12.6067 22.3675 12.5711C22.3319 12.5356 22.3037 12.4933 22.2845 12.4468C22.2653 12.4002 22.2555 12.3504 22.2556 12.3001V10.0373H3.79276V12.3001C3.79541 12.3519 3.78748 12.4038 3.76946 12.4525C3.75144 12.5012 3.7237 12.5458 3.68792 12.5834C3.65214 12.6211 3.60908 12.651 3.56136 12.6715C3.51363 12.692 3.46224 12.7026 3.4103 12.7026C3.35836 12.7026 3.30697 12.692 3.25924 12.6715C3.21151 12.651 3.16845 12.6211 3.13268 12.5834C3.0969 12.5458 3.06916 12.5012 3.05114 12.4525C3.03312 12.4038 3.02519 12.3519 3.02784 12.3001V9.6553C3.02784 9.55374 3.06819 9.45633 3.14001 9.38451C3.21183 9.31269 3.30923 9.27234 3.4108 9.27234H22.6396C22.7412 9.27234 22.8386 9.31269 22.9104 9.38451C22.9822 9.45633 23.0225 9.55374 23.0225 9.6553V12.3001C23.0227 12.3505 23.0128 12.4004 22.9936 12.447C22.9743 12.4936 22.946 12.5359 22.9103 12.5715C22.8746 12.6071 22.8322 12.6353 22.7856 12.6544C22.739 12.6736 22.689 12.6833 22.6386 12.683Z" fill="#555555"/>
<path d="M25.668 8.28141H0.381949C0.283897 8.27639 0.191517 8.23391 0.12389 8.16273C0.0562627 8.09156 0.0185547 7.99713 0.0185547 7.89894C0.0185547 7.80076 0.0562627 7.70633 0.12389 7.63515C0.191517 7.56398 0.283897 7.52149 0.381949 7.51648H25.667C25.7651 7.52149 25.8575 7.56398 25.9251 7.63515C25.9927 7.70633 26.0304 7.80076 26.0304 7.89894C26.0304 7.99713 25.9927 8.09156 25.9251 8.16273C25.8575 8.23391 25.7661 8.27639 25.668 8.28141Z" fill="#555555"/>
<path d="M3.03174 22.0987C2.96791 22.099 2.90504 22.0832 2.84887 22.0528C2.79271 22.0225 2.74504 21.9786 2.71023 21.9251C2.67542 21.8715 2.65458 21.8102 2.6496 21.7465C2.64462 21.6829 2.65567 21.619 2.68174 21.5607L5.11474 16.0827C5.13491 16.0364 5.16405 15.9945 5.20048 15.9595C5.23692 15.9244 5.27993 15.897 5.32703 15.8786C5.37413 15.8603 5.4244 15.8515 5.47493 15.8526C5.52546 15.8538 5.57526 15.865 5.62145 15.8855C5.66764 15.9061 5.70931 15.9355 5.74406 15.9722C5.77882 16.0089 5.80596 16.0521 5.82393 16.0994C5.8419 16.1466 5.85033 16.197 5.84876 16.2475C5.84718 16.298 5.83562 16.3477 5.81474 16.3937L3.38174 21.8717C3.35159 21.9394 3.30248 21.9968 3.24036 22.0371C3.17824 22.0774 3.10578 22.0988 3.03174 22.0987Z" fill="#555555"/>
<path d="M6.93943 22.0987C6.87568 22.0988 6.81293 22.0829 6.75691 22.0524C6.70088 22.022 6.65335 21.9781 6.61865 21.9246C6.58396 21.8711 6.5632 21.8098 6.55827 21.7462C6.55334 21.6827 6.5644 21.6189 6.59043 21.5607L9.02343 16.0827C9.06518 15.9907 9.14161 15.9189 9.23608 15.8829C9.33054 15.847 9.43538 15.8499 9.52774 15.8909C9.6201 15.9319 9.6925 16.0078 9.72915 16.102C9.76581 16.1962 9.76375 16.301 9.72343 16.3937L7.29043 21.8717C7.26021 21.9395 7.21095 21.997 7.14863 22.0373C7.08632 22.0776 7.01364 22.0989 6.93943 22.0987Z" fill="#555555"/>
<path d="M10.8418 22.0987C10.778 22.0988 10.7153 22.0829 10.6592 22.0524C10.6032 22.022 10.5557 21.9781 10.521 21.9246C10.4863 21.8711 10.4655 21.8098 10.4606 21.7462C10.4557 21.6827 10.4667 21.6189 10.4928 21.5607L12.9258 16.0827C12.9675 15.9907 13.044 15.9189 13.1384 15.8829C13.2329 15.847 13.3377 15.8499 13.4301 15.8909C13.5224 15.9319 13.5948 16.0078 13.6315 16.102C13.6682 16.1962 13.6661 16.301 13.6258 16.3937L11.1868 21.8717C11.1571 21.9386 11.1088 21.9956 11.0476 22.0358C10.9864 22.0761 10.915 22.0979 10.8418 22.0987Z" fill="#555555"/>
<path d="M14.7451 22.0987C14.6813 22.099 14.6184 22.0832 14.5623 22.0528C14.5061 22.0225 14.4584 21.9786 14.4236 21.9251C14.3888 21.8715 14.368 21.8102 14.363 21.7465C14.358 21.6829 14.3691 21.619 14.3951 21.5607L16.8291 16.0827C16.8493 16.0364 16.8784 15.9945 16.9149 15.9595C16.9513 15.9244 16.9943 15.897 17.0414 15.8786C17.0885 15.8603 17.1388 15.8515 17.1893 15.8526C17.2398 15.8538 17.2896 15.865 17.3358 15.8855C17.382 15.9061 17.4237 15.9355 17.4584 15.9722C17.4932 16.0089 17.5203 16.0521 17.5383 16.0994C17.5563 16.1466 17.5647 16.197 17.5631 16.2475C17.5616 16.298 17.55 16.3477 17.5291 16.3937L15.0951 21.8717C15.0651 21.9394 15.016 21.9969 14.9538 22.0372C14.8917 22.0775 14.8192 22.0989 14.7451 22.0987Z" fill="#555555"/>
<path d="M18.6509 22.0987C18.587 22.0989 18.5242 22.0831 18.468 22.0528C18.4118 22.0225 18.3642 21.9785 18.3294 21.925C18.2946 21.8715 18.2737 21.8101 18.2687 21.7465C18.2638 21.6829 18.2748 21.619 18.3009 21.5607L20.7339 16.0827C20.7756 15.9907 20.8521 15.9189 20.9465 15.8829C21.041 15.847 21.1458 15.8499 21.2382 15.8909C21.3305 15.9319 21.4029 16.0078 21.4396 16.102C21.4763 16.1962 21.4742 16.301 21.4339 16.3937L19.0009 21.8717C18.9708 21.9394 18.9217 21.9969 18.8596 22.0372C18.7975 22.0775 18.7249 22.0989 18.6509 22.0987Z" fill="#555555"/>
<path d="M24.5111 2.77593H7.58806C7.53619 2.77858 7.48433 2.77065 7.43562 2.75263C7.38691 2.73461 7.34237 2.70687 7.30472 2.67109C7.26707 2.63531 7.23709 2.59225 7.2166 2.54452C7.19611 2.4968 7.18555 2.4454 7.18555 2.39346C7.18555 2.34152 7.19611 2.29013 7.2166 2.2424C7.23709 2.19467 7.26707 2.15161 7.30472 2.11584C7.34237 2.08006 7.38691 2.05232 7.43562 2.03429C7.48433 2.01627 7.53619 2.00834 7.58806 2.011H24.5111C24.6092 2.01601 24.7015 2.0585 24.7692 2.12967C24.8368 2.20085 24.8745 2.29528 24.8745 2.39346C24.8745 2.49164 24.8368 2.58608 24.7692 2.65725C24.7015 2.72843 24.6092 2.77091 24.5111 2.77593Z" fill="#555555"/>
<path d="M5.68304 2.77612H2.00504C1.90697 2.7711 1.81458 2.72862 1.74695 2.65743C1.67931 2.58625 1.6416 2.49181 1.6416 2.39362C1.6416 2.29543 1.67931 2.20099 1.74695 2.12981C1.81458 2.05862 1.90697 2.01614 2.00504 2.01112H5.68304C5.73491 2.00847 5.78679 2.01639 5.8355 2.03442C5.88422 2.05244 5.92876 2.08019 5.96642 2.11597C6.00407 2.15175 6.03406 2.19481 6.05455 2.24254C6.07504 2.29028 6.0856 2.34168 6.0856 2.39362C6.0856 2.44556 6.07504 2.49696 6.05455 2.5447C6.03406 2.59243 6.00407 2.63549 5.96642 2.67127C5.92876 2.70705 5.88422 2.7348 5.8355 2.75282C5.78679 2.77085 5.73491 2.77877 5.68304 2.77612Z" fill="#555555"/>
</svg>
