<svg width="31" height="31" viewBox="0 0 31 31" fill="none" xmlns="http://www.w3.org/2000/svg">
<path d="M8.20442 4.22407C8.19952 4.22871 8.19483 4.23353 8.19035 4.23857C8.18536 4.23841 8.18035 4.23841 8.17535 4.23857C8.17029 4.24335 8.16544 4.24838 8.16082 4.25359C8.15099 4.25297 8.14113 4.25297 8.13129 4.25359C8.12641 4.25808 8.12172 4.26276 8.11723 4.26764C8.09625 4.27465 8.07636 4.28459 8.05817 4.29717C8.05311 4.3018 8.04826 4.30665 8.04364 4.3117C8.03811 4.32119 8.03325 4.33108 8.0291 4.34126L4.36676 8.00359C4.34504 8.01512 4.32527 8.02998 4.30817 8.04765C4.30803 8.05234 4.30803 8.05701 4.30817 8.0617C4.29682 8.07539 4.28707 8.09035 4.2791 8.10625C4.27406 8.11073 4.26922 8.1154 4.26457 8.12029C4.26441 8.12529 4.26441 8.13032 4.26457 8.13531C4.25812 8.14947 4.2531 8.16423 4.24957 8.17937C4.24943 8.18406 4.24943 8.18874 4.24957 8.19342C4.24942 8.19826 4.24942 8.20311 4.24957 8.20796C4.24898 8.21763 4.24898 8.22735 4.24957 8.23702V26.4306C4.24819 26.4453 4.24819 26.46 4.24957 26.4747V26.4887C4.25052 26.5362 4.26589 26.5824 4.29364 26.621C4.29826 26.626 4.30311 26.6308 4.30817 26.6354C4.32933 26.662 4.35602 26.6836 4.38637 26.6988C4.41672 26.714 4.45001 26.7225 4.48395 26.7236H22.6775C22.7205 26.7362 22.7663 26.7362 22.8093 26.7236C22.8351 26.7181 22.8598 26.7083 22.8824 26.6945C22.899 26.6819 22.9138 26.6671 22.9264 26.6505L22.9555 26.6214C22.9607 26.6168 22.9657 26.6119 22.9705 26.6069L26.6619 22.93C26.6724 22.9212 26.6822 22.9115 26.691 22.9009C26.696 22.8963 26.7009 22.8915 26.7055 22.8864C26.712 22.8723 26.717 22.8575 26.7205 22.8423C26.7254 22.8377 26.7301 22.8329 26.7346 22.8278C26.7452 22.7997 26.7503 22.7698 26.7496 22.7397V4.51704C26.752 4.49758 26.752 4.4779 26.7496 4.45844C26.7502 4.44876 26.7502 4.43905 26.7496 4.42937C26.7497 4.42453 26.7497 4.41968 26.7496 4.41484C26.7454 4.40467 26.7406 4.39481 26.735 4.38532C26.7352 4.38047 26.7352 4.37562 26.735 4.37078C26.7261 4.36008 26.7162 4.3502 26.7055 4.34126C26.7056 4.33657 26.7056 4.33187 26.7055 4.32718C26.7007 4.32703 26.6958 4.32703 26.691 4.32718C26.6795 4.30529 26.6646 4.28537 26.6469 4.26813C26.6085 4.24073 26.5628 4.22552 26.5157 4.22453H8.23442C8.22458 4.2239 8.21472 4.2239 8.20489 4.22453L8.20442 4.22407ZM8.6591 4.69282H25.9438L22.6625 7.97407H10.8561L10.7389 7.81279L10.4896 7.97407H8.46879V4.81001L8.6591 4.69282ZM7.99957 5.02985V7.97407H5.05535L7.99957 5.02985ZM26.2808 5.02985V22.5053H25.8411L26.0464 22.1978L25.6654 21.9339L25.4019 22.3295L25.6804 22.5053H22.9991V8.29656L26.2804 5.02936L26.2808 5.02985ZM9.18598 5.46904L8.79035 5.71844L9.05426 6.11357L9.44989 5.85016L9.18598 5.46904ZM9.96223 6.64092L9.56707 6.89031L9.83051 7.28545L10.2261 7.02203L9.96223 6.64092ZM4.79192 8.44282H7.99957V10.4059L7.79426 10.7134L7.99957 10.8452V22.6225L4.71832 25.9038V8.56001L4.79145 8.44282H4.79192ZM8.46832 8.44282H10.5922L10.6068 8.45732L10.6218 8.44328H22.1793L21.9889 8.6186L22.3255 8.95563L22.5308 8.75029V22.5053H19.9672L20.3043 22.2709L20.0554 21.8903L19.6597 22.1388L19.9086 22.5053H8.65864L8.67317 22.4912L8.46832 22.2859V8.44282ZM22.5308 19.8686L22.1352 19.6052L21.8863 20.0003L22.2669 20.2642L22.5308 19.8686ZM22.4722 8.44282H22.5308V8.51592L22.4722 8.44282ZM5.69989 8.76531L5.45051 9.16045L5.84614 9.42438L6.09504 9.02876L5.69989 8.76531ZM11.5152 8.98467L11.1196 9.2486L11.3835 9.6292L11.7786 9.38078L11.5152 8.98467ZM21.3294 9.27764L20.9929 9.61515L21.3149 9.95172L21.6519 9.61469L21.3294 9.27764ZM6.88629 9.54156L6.62239 9.93719L7.01801 10.2006L7.26692 9.80498L6.88629 9.54156ZM12.2914 10.1565L11.8958 10.4205L12.1597 10.8011L12.5554 10.5527L12.2914 10.1565ZM20.3188 10.2737L19.9968 10.6112L20.3188 10.9333L20.6558 10.6108L20.3188 10.2737ZM9.23004 11.094L8.96614 11.4897L9.36176 11.7386L9.62567 11.358L9.23004 11.094ZM19.3227 11.2698L19.0007 11.5923L19.3227 11.9294L19.6597 11.5919L19.3227 11.2698ZM13.0677 11.3284L12.6725 11.5923L12.936 11.9729L13.3316 11.7245L13.0677 11.3284ZM10.4019 11.8708L10.138 12.2659L10.5336 12.5153L10.7975 12.1197L10.4019 11.8708ZM18.3266 12.2514L17.9896 12.5884L18.3271 12.9104L18.6636 12.5884L18.3266 12.2514ZM13.8444 12.5003L13.4488 12.7642L13.7122 13.1448L14.1079 12.8964L13.8444 12.5003ZM11.5738 12.647L11.3249 13.0276L11.7055 13.2916L11.9694 12.8959L11.5738 12.647ZM17.3305 13.2475L16.9935 13.57L17.331 13.9065L17.653 13.57L17.3305 13.2475ZM12.7457 13.4233L12.4968 13.8044L12.8774 14.0678L13.1413 13.6722L12.7457 13.4233ZM14.6207 13.6722L14.225 13.9361L14.4889 14.3167L14.8841 14.0683L14.6207 13.6722ZM13.9175 14.185L13.6686 14.5806L14.0638 14.844L14.3132 14.4489L13.9175 14.185ZM16.3344 14.2291L15.9974 14.5661L16.3349 14.9031L16.6569 14.5656L16.3344 14.2291ZM15.3969 14.8445L15.2943 14.9177C15.2783 14.9177 15.2671 14.9031 15.2507 14.9031C14.9943 14.9031 14.7819 15.1159 14.7819 15.3719C14.7819 15.6278 14.9943 15.8406 15.2507 15.8406H15.2797L15.3238 15.8847L15.3969 15.8116C15.5788 15.7473 15.7194 15.5744 15.7194 15.3719C15.7194 15.2106 15.6257 15.0766 15.4991 14.9912L15.3969 14.8445ZM16.2758 15.738L16.0124 16.1336L15.778 16.2798L16.0414 16.6755L16.4371 16.4116L16.4075 16.3825L16.6569 16.0019L16.2758 15.738ZM14.3277 16.2213L14.0052 16.5437L14.3277 16.8803L14.6647 16.5437L14.3272 16.2213H14.3277ZM17.4477 16.5142L17.1843 16.9098L17.5794 17.1588L17.8433 16.7781L17.4477 16.5142ZM16.9499 17.1883L16.5543 17.4517L16.8177 17.8473L17.1988 17.5834L16.9499 17.1883ZM13.3311 17.2024L13.0091 17.5398L13.3316 17.8619L13.6686 17.5394L13.3311 17.2024ZM18.6196 17.2905L18.3561 17.6861L18.7513 17.935L19.0152 17.5394L18.6196 17.2905ZM19.7914 18.0667L19.528 18.4478L19.9232 18.7113L20.1871 18.3161L19.7914 18.0667ZM12.3355 18.1989L11.9985 18.5209L12.3355 18.858L12.6725 18.5209L12.335 18.1989H12.3355ZM17.7261 18.3597L17.3305 18.6236L17.5944 19.0192L17.975 18.7553L17.7261 18.3597ZM20.9633 18.8434L20.7144 19.2241L21.095 19.488L21.3589 19.0923L20.9633 18.8434ZM11.3394 19.18L11.0024 19.5175L11.3394 19.8541L11.6614 19.517L11.3394 19.18ZM18.5024 19.5316L18.1068 19.7955L18.3707 20.1911L18.7513 19.9272L18.5024 19.5316ZM10.3438 20.1761L10.0068 20.4986L10.3438 20.8356L10.6658 20.5131L10.3438 20.1761ZM23.3221 20.3814L23.0586 20.777L23.4543 21.0405L23.7027 20.6449L23.3221 20.3814ZM19.2791 20.7034L18.8839 20.9673L19.1474 21.363L19.5285 21.0991L19.2791 20.7034ZM9.3477 21.1581L9.01067 21.4947L9.33317 21.8317L9.66973 21.4942L9.3477 21.1581ZM24.4939 21.1581L24.2305 21.5533L24.6261 21.8022L24.8746 21.4216L24.4939 21.1581ZM8.32207 22.9741H22.5313V25.6253L22.3846 25.4059L21.9894 25.6544L22.2529 26.0505L22.5313 25.8602V26.2553H5.02582L8.32207 22.9741ZM23 22.9741H25.9443L23 25.9183V22.9741ZM20.8321 23.0622L20.4364 23.3106L20.7004 23.7067L21.081 23.4428L20.8321 23.0622ZM21.6083 24.2341L21.2127 24.4825L21.4766 24.8786L21.8572 24.6147L21.6088 24.2341H21.6083Z" fill="black"/>
</svg>
