<svg width="26" height="26" viewBox="0 0 26 26" fill="none" xmlns="http://www.w3.org/2000/svg">
<path d="M24.1617 13.4806H2.64844V6.37475C2.64937 5.90983 2.83444 5.46422 3.16315 5.13544C3.49186 4.80666 3.93743 4.62149 4.40234 4.62045H5.41133V6.30014C5.41133 6.40374 5.45248 6.5031 5.52574 6.57635C5.599 6.64961 5.69835 6.69077 5.80195 6.69077H11.1707C11.2743 6.69077 11.3737 6.64961 11.4469 6.57635C11.5202 6.5031 11.5613 6.40374 11.5613 6.30014V4.22983C11.5613 4.12623 11.5202 4.02687 11.4469 3.95361C11.3737 3.88036 11.2743 3.8392 11.1707 3.8392H4.40156C3.72958 3.84044 3.0855 4.10802 2.61044 4.58329C2.13539 5.05856 1.86812 5.70277 1.86719 6.37475V16.9275C1.86838 17.9933 2.1492 19.0401 2.6816 19.9635C3.214 20.8868 3.97934 21.6542 4.90117 22.1892V24.5833C4.90117 24.6869 4.94233 24.7863 5.01558 24.8596C5.08884 24.9328 5.1882 24.974 5.2918 24.974H8.18242C8.28602 24.974 8.38538 24.9328 8.45864 24.8596C8.53189 24.7863 8.57305 24.6869 8.57305 24.5833V23.0208H17.8461V24.5833C17.8461 24.6869 17.8872 24.7863 17.9605 24.8596C18.0338 24.9328 18.1331 24.974 18.2367 24.974H21.1273C21.2309 24.974 21.3303 24.9328 21.4036 24.8596C21.4768 24.7863 21.518 24.6869 21.518 24.5833V22.1892C22.44 21.6543 23.2054 20.8869 23.738 19.9636C24.2705 19.0403 24.5515 17.9934 24.5527 16.9275V13.8712C24.5527 13.8199 24.5426 13.7691 24.523 13.7217C24.5033 13.6742 24.4745 13.6312 24.4382 13.5949C24.4019 13.5586 24.3588 13.5298 24.3113 13.5102C24.2639 13.4906 24.213 13.4806 24.1617 13.4806ZM8.76758 4.62045H10.7801V5.90952H6.1918V4.62045H8.76758ZM23.7711 15.8611H2.64844V14.2595H23.7711V15.8611ZM5.68242 24.1927V22.5751C6.35378 22.8457 7.0682 22.9938 7.7918 23.0122V24.1927H5.68242ZM20.7363 24.1927H18.627V23.0122C19.3505 22.9937 20.0649 22.8456 20.7363 22.5751V24.1927ZM18.459 22.2396H7.96094C6.55252 22.238 5.20222 21.6779 4.20628 20.682C3.21034 19.6862 2.65009 18.3359 2.64844 16.9275V16.6423H23.7711V16.9263C23.7699 18.3349 23.2098 19.6855 22.2139 20.6816C21.218 21.6777 19.8676 22.238 18.459 22.2396Z" fill="black"/>
<path d="M18.459 19.6841V20.4654C19.1092 20.4663 19.747 20.2876 20.302 19.9489C20.857 19.6103 21.3077 19.1248 21.6043 18.5462L20.9102 18.1877C20.6791 18.6387 20.3279 19.0172 19.8954 19.2812C19.4629 19.5453 18.9658 19.6847 18.459 19.6841Z" fill="black"/>
<path d="M6.19189 7.69818H5.41064V10.7103H6.19189V7.69818Z" fill="black"/>
<path d="M11.561 7.69818H10.7798V10.7103H11.561V7.69818Z" fill="black"/>
<path d="M8.87646 7.69818H8.09521V10.7103H8.87646V7.69818Z" fill="black"/>
</svg>
