<svg width="39" height="39" viewBox="0 0 39 39" fill="none" xmlns="http://www.w3.org/2000/svg">
<path d="M34.9375 25.4158V22.5064C34.9375 21.2001 34.1656 20.1908 33.1562 20.072V9.97827C33.1562 8.9689 32.3844 8.19702 31.375 8.19702H7.625C6.61562 8.19702 5.84375 8.9689 5.84375 9.97827V20.072C4.83438 20.1908 4.0625 21.2001 4.0625 22.5064V25.4158C3.70625 25.772 3.46875 26.3064 3.46875 26.8408V27.4939C3.46875 28.5033 4.24062 29.3939 5.25 29.5126V30.1064C5.25 30.4626 5.4875 30.7001 5.84375 30.7001H7.03125C7.3875 30.7001 7.625 30.4626 7.625 30.1064V29.5126H31.375V30.1064C31.375 30.4626 31.6125 30.7001 31.9688 30.7001H33.1562C33.5125 30.7001 33.75 30.4626 33.75 30.1064V29.5126C34.7594 29.3939 35.5312 28.5033 35.5312 27.4939V26.8408C35.5312 26.3064 35.2938 25.772 34.9375 25.4158ZM7.03125 9.97827C7.03125 9.62202 7.26875 9.38452 7.625 9.38452H31.375C31.7313 9.38452 31.9688 9.62202 31.9688 9.97827V20.072H30.7812V17.5189C30.7812 16.272 29.7719 15.322 28.5844 15.322H23.5375C22.2906 15.322 21.3406 16.3314 21.3406 17.5189V20.072H17.7781V17.5189C17.7781 16.272 16.7688 15.322 15.5813 15.322H10.5344C9.2875 15.322 8.3375 16.3314 8.3375 17.5189V20.072H7.15V9.97827H7.03125ZM29.5938 20.072H22.4688V17.5189C22.4688 16.9251 22.9438 16.5095 23.4781 16.5095H28.525C29.1187 16.5095 29.5344 16.9845 29.5344 17.5189V20.072H29.5938ZM16.5312 20.072H9.40625V17.5189C9.40625 16.9251 9.88125 16.5095 10.4156 16.5095H15.4625C16.0563 16.5095 16.4719 16.9845 16.4719 17.5189V20.072H16.5312ZM6.08125 21.2595H6.4375H8.8125H17.125H21.875H30.1875H32.5625H32.9187C33.275 21.2595 33.75 21.7939 33.75 22.5064V24.822C33.6906 24.822 33.5719 24.822 33.5125 24.822H5.4875C5.36875 24.822 5.30938 24.822 5.25 24.822V22.5064C5.25 21.7939 5.66562 21.2595 6.08125 21.2595ZM34.3438 27.5533C34.3438 28.0283 33.9281 28.3845 33.5125 28.3845H5.4875C5.07187 28.3845 4.65625 27.9689 4.65625 27.5533V26.9001C4.65625 26.4251 5.07187 26.0095 5.4875 26.0095H33.4531C33.9281 26.0095 34.2844 26.4251 34.2844 26.8408V27.5533H34.3438Z" fill="#231F20"/>
</svg>
