<svg width="39" height="39" viewBox="0 0 39 39" fill="none" xmlns="http://www.w3.org/2000/svg">
<path d="M35.2375 25.2657V22.3564C35.2375 21.0501 34.4657 20.0407 33.4563 19.922V9.82825C33.4563 8.81887 32.6844 8.047 31.675 8.047H7.92505C6.91567 8.047 6.1438 8.81887 6.1438 9.82825V19.922C5.13442 20.0407 4.36255 21.0501 4.36255 22.3564V25.2657C4.0063 25.622 3.7688 26.1564 3.7688 26.6907V27.3439C3.7688 28.3532 4.54067 29.2439 5.55005 29.3626V29.9564C5.55005 30.3126 5.78755 30.5501 6.1438 30.5501H7.3313C7.68755 30.5501 7.92505 30.3126 7.92505 29.9564V29.3626H31.675V29.9564C31.675 30.3126 31.9125 30.5501 32.2688 30.5501H33.4563C33.8125 30.5501 34.05 30.3126 34.05 29.9564V29.3626C35.0594 29.2439 35.8313 28.3532 35.8313 27.3439V26.6907C35.8313 26.1564 35.5938 25.622 35.2375 25.2657ZM7.3313 9.82825C7.3313 9.472 7.5688 9.2345 7.92505 9.2345H31.675C32.0313 9.2345 32.2688 9.472 32.2688 9.82825V19.922H31.0813V17.3689C31.0813 16.122 30.0719 15.172 28.8844 15.172H23.8375C22.5907 15.172 21.6407 16.1814 21.6407 17.3689V19.922H18.0782V17.3689C18.0782 16.122 17.0688 15.172 15.8813 15.172H10.8344C9.58755 15.172 8.63755 16.1814 8.63755 17.3689V19.922H7.45005V9.82825H7.3313ZM29.8938 19.922H22.7688V17.3689C22.7688 16.7751 23.2438 16.3595 23.7782 16.3595H28.825C29.4188 16.3595 29.8344 16.8345 29.8344 17.3689V19.922H29.8938ZM16.8313 19.922H9.7063V17.3689C9.7063 16.7751 10.1813 16.3595 10.7157 16.3595H15.7625C16.3563 16.3595 16.7719 16.8345 16.7719 17.3689V19.922H16.8313ZM6.3813 21.1095H6.73755H9.11255H17.425H22.175H30.4875H32.8625H33.2188C33.575 21.1095 34.05 21.6439 34.05 22.3564V24.672C33.9907 24.672 33.8719 24.672 33.8125 24.672H5.78755C5.6688 24.672 5.60942 24.672 5.55005 24.672V22.3564C5.55005 21.6439 5.96567 21.1095 6.3813 21.1095ZM34.6438 27.4032C34.6438 27.8782 34.2282 28.2345 33.8125 28.2345H5.78755C5.37192 28.2345 4.9563 27.8189 4.9563 27.4032V26.7501C4.9563 26.2751 5.37192 25.8595 5.78755 25.8595H33.7532C34.2282 25.8595 34.5844 26.2751 34.5844 26.6907V27.4032H34.6438Z" fill="#231F20"/>
</svg>
