<svg width="24" height="23" viewBox="0 0 24 23" fill="none" xmlns="http://www.w3.org/2000/svg">
<path d="M7.55908 16.4524C6.63131 16.4508 5.74199 16.0816 5.08596 15.4255C4.42993 14.7695 4.06067 13.8802 4.05908 12.9524C4.0641 12.8544 4.10658 12.762 4.17777 12.6943C4.24895 12.6267 4.34339 12.589 4.44158 12.589C4.53977 12.589 4.63421 12.6267 4.7054 12.6943C4.77658 12.762 4.81907 12.8544 4.82408 12.9524C4.82408 13.6781 5.11234 14.374 5.62544 14.8871C6.13854 15.4002 6.83445 15.6884 7.56008 15.6884C8.28571 15.6884 8.98163 15.4002 9.49473 14.8871C10.0078 14.374 10.2961 13.6781 10.2961 12.9524C10.3011 12.8544 10.3436 12.762 10.4148 12.6943C10.486 12.6267 10.5804 12.589 10.6786 12.589C10.7768 12.589 10.8712 12.6267 10.9424 12.6943C11.0136 12.762 11.0561 12.8544 11.0611 12.9524C11.0595 13.8805 10.69 14.7702 10.0335 15.4263C9.37703 16.0823 8.4872 16.4514 7.55908 16.4524Z" fill="#555555"/>
<path d="M13.7974 16.4524C12.8696 16.4508 11.9803 16.0815 11.3243 15.4255C10.6682 14.7695 10.299 13.8801 10.2974 12.9524C10.2947 12.9005 10.3026 12.8486 10.3207 12.7999C10.3387 12.7512 10.3664 12.7066 10.4022 12.669C10.438 12.6313 10.4811 12.6013 10.5288 12.5809C10.5765 12.5604 10.6279 12.5498 10.6799 12.5498C10.7318 12.5498 10.7832 12.5604 10.831 12.5809C10.8787 12.6013 10.9217 12.6313 10.9575 12.669C10.9933 12.7066 11.0211 12.7512 11.0391 12.7999C11.0571 12.8486 11.065 12.9005 11.0624 12.9524C11.0624 13.3117 11.1331 13.6674 11.2706 13.9994C11.4081 14.3313 11.6097 14.633 11.8637 14.887C12.1178 15.1411 12.4194 15.3426 12.7514 15.4801C13.0833 15.6176 13.4391 15.6884 13.7984 15.6884C14.1577 15.6884 14.5135 15.6176 14.8454 15.4801C15.1773 15.3426 15.479 15.1411 15.733 14.887C15.9871 14.633 16.1886 14.3313 16.3261 13.9994C16.4636 13.6674 16.5344 13.3117 16.5344 12.9524C16.5394 12.8543 16.5819 12.7619 16.6531 12.6943C16.7242 12.6266 16.8187 12.5889 16.9169 12.5889C17.0151 12.5889 17.1095 12.6266 17.1807 12.6943C17.2519 12.7619 17.2944 12.8543 17.2994 12.9524C17.2981 13.8806 16.9286 14.7703 16.2721 15.4265C15.6156 16.0826 14.7256 16.4516 13.7974 16.4524Z" fill="#555555"/>
<path d="M20.0352 16.4524C19.1074 16.4508 18.2181 16.0815 17.562 15.4255C16.906 14.7695 16.5368 13.8801 16.5352 12.9524C16.5325 12.9005 16.5404 12.8486 16.5585 12.7999C16.5765 12.7512 16.6042 12.7066 16.64 12.669C16.6758 12.6313 16.7189 12.6013 16.7666 12.5809C16.8143 12.5604 16.8657 12.5498 16.9177 12.5498C16.9696 12.5498 17.021 12.5604 17.0687 12.5809C17.1165 12.6013 17.1595 12.6313 17.1953 12.669C17.2311 12.7066 17.2588 12.7512 17.2769 12.7999C17.2949 12.8486 17.3028 12.9005 17.3002 12.9524C17.3002 13.6783 17.5885 14.3744 18.1018 14.8877C18.6151 15.401 19.3113 15.6894 20.0372 15.6894C20.7631 15.6894 21.4592 15.401 21.9725 14.8877C22.4858 14.3744 22.7742 13.6783 22.7742 12.9524C22.7792 12.8543 22.8217 12.7619 22.8929 12.6943C22.964 12.6266 23.0585 12.5889 23.1567 12.5889C23.2549 12.5889 23.3493 12.6266 23.4205 12.6943C23.4917 12.7619 23.5342 12.8543 23.5392 12.9524C23.5376 13.8808 23.1678 14.7708 22.5109 15.4269C21.854 16.083 20.9636 16.4518 20.0352 16.4524Z" fill="#555555"/>
<path d="M4.15822 22.1303C3.23044 22.1288 2.34113 21.7595 1.68509 21.1035C1.02906 20.4474 0.659801 19.5581 0.658215 18.6303C0.655562 18.5785 0.663488 18.5266 0.681513 18.4779C0.699537 18.4292 0.727283 18.3846 0.763062 18.347C0.798842 18.3093 0.841907 18.2793 0.889639 18.2588C0.93737 18.2383 0.988771 18.2278 1.04071 18.2278C1.09266 18.2278 1.14406 18.2383 1.19179 18.2588C1.23952 18.2793 1.28259 18.3093 1.31837 18.347C1.35415 18.3846 1.38189 18.4292 1.39992 18.4779C1.41794 18.5266 1.42587 18.5785 1.42321 18.6303C1.42321 19.3561 1.71152 20.0522 2.22472 20.5653C2.73791 21.0785 3.43395 21.3668 4.15971 21.3668C4.88548 21.3668 5.58152 21.0785 6.09471 20.5653C6.60791 20.0522 6.89621 19.3561 6.89621 18.6303C6.89356 18.5785 6.90149 18.5266 6.91951 18.4779C6.93754 18.4292 6.96528 18.3846 7.00106 18.347C7.03684 18.3093 7.07991 18.2793 7.12764 18.2588C7.17537 18.2383 7.22677 18.2278 7.27871 18.2278C7.33066 18.2278 7.38206 18.2383 7.42979 18.2588C7.47752 18.2793 7.52059 18.3093 7.55637 18.347C7.59215 18.3846 7.61989 18.4292 7.63792 18.4779C7.65594 18.5266 7.66387 18.5785 7.66121 18.6303C7.65963 19.5586 7.28996 20.4484 6.63327 21.1045C5.97659 21.7606 5.08651 22.1296 4.15822 22.1303Z" fill="#555555"/>
<path d="M10.395 22.1303C9.46726 22.1288 8.57794 21.7595 7.92191 21.1035C7.26588 20.4474 6.89662 19.5581 6.89503 18.6303C6.89238 18.5785 6.9003 18.5266 6.91833 18.4779C6.93635 18.4292 6.9641 18.3846 6.99988 18.347C7.03566 18.3093 7.07872 18.2793 7.12646 18.2588C7.17419 18.2383 7.22559 18.2278 7.27753 18.2278C7.32948 18.2278 7.38088 18.2383 7.42861 18.2588C7.47634 18.2793 7.5194 18.3093 7.55518 18.347C7.59096 18.3846 7.61871 18.4292 7.63673 18.4779C7.65476 18.5266 7.66268 18.5785 7.66003 18.6303C7.66003 19.3561 7.94834 20.0522 8.46153 20.5653C8.97473 21.0785 9.67077 21.3668 10.3965 21.3668C11.1223 21.3668 11.8183 21.0785 12.3315 20.5653C12.8447 20.0522 13.133 19.3561 13.133 18.6303C13.133 18.5289 13.1733 18.4316 13.2451 18.3599C13.3168 18.2881 13.4141 18.2478 13.5155 18.2478C13.617 18.2478 13.7143 18.2881 13.786 18.3599C13.8577 18.4316 13.898 18.5289 13.898 18.6303C13.8964 19.5586 13.5268 20.4484 12.8701 21.1045C12.2134 21.7606 11.3233 22.1296 10.395 22.1303Z" fill="#555555"/>
<path d="M16.6343 22.1303C15.7065 22.1288 14.8172 21.7595 14.1612 21.1035C13.5051 20.4474 13.1359 19.5581 13.1343 18.6303C13.1316 18.5785 13.1396 18.5266 13.1576 18.4779C13.1756 18.4292 13.2034 18.3846 13.2391 18.347C13.2749 18.3093 13.318 18.2793 13.3657 18.2588C13.4134 18.2383 13.4648 18.2278 13.5168 18.2278C13.5687 18.2278 13.6201 18.2383 13.6679 18.2588C13.7156 18.2793 13.7587 18.3093 13.7944 18.347C13.8302 18.3846 13.858 18.4292 13.876 18.4779C13.894 18.5266 13.9019 18.5785 13.8993 18.6303C13.8993 18.9896 13.9701 19.3454 14.1076 19.6774C14.2451 20.0093 14.4466 20.3109 14.7006 20.565C14.9547 20.8191 15.2563 21.0206 15.5883 21.1581C15.9202 21.2956 16.276 21.3663 16.6353 21.3663C16.9946 21.3663 17.3504 21.2956 17.6823 21.1581C18.0143 21.0206 18.3159 20.8191 18.5699 20.565C18.824 20.3109 19.0255 20.0093 19.163 19.6774C19.3005 19.3454 19.3713 18.9896 19.3713 18.6303C19.3686 18.5785 19.3766 18.5266 19.3946 18.4779C19.4126 18.4292 19.4404 18.3846 19.4761 18.347C19.5119 18.3093 19.555 18.2793 19.6027 18.2588C19.6504 18.2383 19.7018 18.2278 19.7538 18.2278C19.8057 18.2278 19.8571 18.2383 19.9049 18.2588C19.9526 18.2793 19.9957 18.3093 20.0314 18.347C20.0672 18.3846 20.095 18.4292 20.113 18.4779C20.131 18.5266 20.1389 18.5785 20.1363 18.6303C20.135 19.5585 19.7655 20.4483 19.109 21.1045C18.4525 21.7606 17.5625 22.1296 16.6343 22.1303Z" fill="#555555"/>
<path d="M9.02946 16.0844C8.92788 16.0844 8.83047 16.044 8.75864 15.9722C8.68681 15.9004 8.64646 15.8029 8.64646 15.7014V3.46437C8.7224 3.19022 8.73396 2.90223 8.68024 2.62288C8.62651 2.34353 8.50894 2.08038 8.33672 1.85397C8.1645 1.62755 7.94229 1.444 7.68742 1.31765C7.43255 1.19129 7.15193 1.12554 6.86746 1.12554C6.58299 1.12554 6.30237 1.19129 6.0475 1.31765C5.79263 1.444 5.57042 1.62755 5.3982 1.85397C5.22598 2.08038 5.10842 2.34353 5.05469 2.62288C5.00096 2.90223 5.01252 3.19022 5.08846 3.46437C5.09111 3.51624 5.08319 3.56812 5.06516 3.61683C5.04714 3.66555 5.01939 3.71009 4.98361 3.74775C4.94783 3.7854 4.90477 3.81539 4.85704 3.83588C4.80931 3.85637 4.7579 3.86693 4.70596 3.86693C4.65402 3.86693 4.60262 3.85637 4.55488 3.83588C4.50715 3.81539 4.46409 3.7854 4.42831 3.74775C4.39253 3.71009 4.36478 3.66555 4.34676 3.61683C4.32873 3.56812 4.32081 3.51624 4.32346 3.46437C4.24767 3.08772 4.25645 2.69895 4.34918 2.32611C4.4419 1.95327 4.61626 1.60567 4.85966 1.30841C5.10306 1.01115 5.40943 0.771649 5.75664 0.60719C6.10386 0.442731 6.48326 0.357422 6.86746 0.357422C7.25166 0.357422 7.63106 0.442731 7.97828 0.60719C8.32549 0.771649 8.63186 1.01115 8.87526 1.30841C9.11866 1.60567 9.29302 1.95327 9.38575 2.32611C9.47847 2.69895 9.48726 3.08772 9.41146 3.46437V15.7024C9.4112 15.8036 9.37087 15.9006 9.29928 15.9722C9.2277 16.0438 9.13069 16.0841 9.02946 16.0844Z" fill="#555555"/>
<path d="M16.9133 13.3334C16.8117 13.3334 16.7143 13.293 16.6424 13.2212C16.5706 13.1494 16.5303 13.052 16.5303 12.9504V3.46339C16.6062 3.18925 16.6178 2.90126 16.564 2.62191C16.5103 2.34256 16.3927 2.0794 16.2205 1.85299C16.0483 1.62657 15.8261 1.44303 15.5712 1.31667C15.3163 1.19031 15.0357 1.12457 14.7513 1.12457C14.4668 1.12457 14.1862 1.19031 13.9313 1.31667C13.6764 1.44303 13.4542 1.62657 13.282 1.85299C13.1098 2.0794 12.9922 2.34256 12.9385 2.62191C12.8847 2.90126 12.8963 3.18925 12.9723 3.46339C12.9749 3.51527 12.967 3.56714 12.949 3.61586C12.9309 3.66457 12.9032 3.70911 12.8674 3.74677C12.8316 3.78443 12.7886 3.81441 12.7408 3.8349C12.6931 3.85539 12.6417 3.86596 12.5898 3.86596C12.5378 3.86596 12.4864 3.85539 12.4387 3.8349C12.3909 3.81441 12.3479 3.78443 12.3121 3.74677C12.2763 3.70911 12.2486 3.66457 12.2305 3.61586C12.2125 3.56714 12.2046 3.51527 12.2072 3.46339C12.1315 3.08675 12.1402 2.69797 12.233 2.32513C12.3257 1.95229 12.5001 1.6047 12.7434 1.30744C12.9868 1.01018 13.2932 0.770672 13.6404 0.606213C13.9877 0.441754 14.3671 0.356445 14.7513 0.356445C15.1354 0.356445 15.5148 0.441754 15.8621 0.606213C16.2093 0.770672 16.5157 1.01018 16.7591 1.30744C17.0024 1.6047 17.1768 1.95229 17.2695 2.32513C17.3623 2.69797 17.371 3.08675 17.2953 3.46339V12.9504C17.2953 13.0518 17.255 13.1491 17.1834 13.2209C17.1118 13.2927 17.0147 13.3331 16.9133 13.3334Z" fill="#555555"/>
<path d="M16.4774 7.45337H9.20139C9.14952 7.45602 9.09764 7.44809 9.04893 7.43007C9.00021 7.41204 8.95567 7.3843 8.91801 7.34852C8.88036 7.31274 8.85037 7.26967 8.82988 7.22194C8.80939 7.17421 8.79883 7.12281 8.79883 7.07087C8.79883 7.01892 8.80939 6.96752 8.82988 6.91979C8.85037 6.87206 8.88036 6.82899 8.91801 6.79321C8.95567 6.75743 9.00021 6.72969 9.04893 6.71166C9.09764 6.69364 9.14952 6.68571 9.20139 6.68837H16.4774C16.5755 6.69338 16.6678 6.73587 16.7355 6.80705C16.8031 6.87823 16.8408 6.97268 16.8408 7.07087C16.8408 7.16906 16.8031 7.2635 16.7355 7.33468C16.6678 7.40586 16.5755 7.44835 16.4774 7.45337Z" fill="#555555"/>
<path d="M16.9153 11.0123H9.20135C9.0999 11.0123 9.00261 10.972 8.93088 10.9003C8.85915 10.8286 8.81885 10.7313 8.81885 10.6298C8.81885 10.5284 8.85915 10.4311 8.93088 10.3593C9.00261 10.2876 9.0999 10.2473 9.20135 10.2473H16.9153C17.0168 10.2473 17.1141 10.2876 17.1858 10.3593C17.2575 10.4311 17.2978 10.5284 17.2978 10.6298C17.2978 10.7313 17.2575 10.8286 17.1858 10.9003C17.1141 10.972 17.0168 11.0123 16.9153 11.0123Z" fill="#555555"/>
</svg>
