<svg width="19" height="21" viewBox="0 0 19 21" fill="none" xmlns="http://www.w3.org/2000/svg">
<path d="M7.86821 0.791626H17.879C17.9267 0.791623 17.9724 0.810417 18.0063 0.843928C18.0401 0.877439 18.0594 0.922963 18.06 0.970617V3.37049C18.06 3.4185 18.0409 3.46453 18.007 3.49847C17.973 3.53242 17.927 3.55149 17.879 3.55149C17.831 3.55149 17.785 3.53242 17.7511 3.49847C17.7171 3.46453 17.698 3.4185 17.698 3.37049V1.15161H8.04917V5.37539C8.04917 5.42339 8.0301 5.46943 7.99616 5.50337C7.96223 5.53731 7.9162 5.55638 7.86821 5.55638H0.510823V19.7287H17.698V6.93631H11.2785V9.0752C11.2785 9.12321 11.2594 9.16924 11.2255 9.20318C11.1915 9.23713 11.1455 9.25619 11.0975 9.25619C11.0495 9.25619 11.0035 9.23713 10.9695 9.20318C10.9356 9.16924 10.9165 9.12321 10.9165 9.0752V6.75532C10.9165 6.70732 10.9356 6.66128 10.9695 6.62734C11.0035 6.5934 11.0495 6.57433 11.0975 6.57433H17.879C17.9028 6.57433 17.9263 6.57901 17.9483 6.58811C17.9702 6.5972 17.9902 6.61054 18.007 6.62734C18.0238 6.64415 18.0371 6.6641 18.0462 6.68606C18.0553 6.70802 18.06 6.73155 18.06 6.75532V19.9097C18.06 19.9334 18.0553 19.957 18.0462 19.9789C18.0371 20.0009 18.0238 20.0208 18.007 20.0376C17.9902 20.0544 17.9702 20.0678 17.9483 20.0769C17.9263 20.086 17.9028 20.0906 17.879 20.0906H0.330863C0.282869 20.0906 0.236841 20.0716 0.202904 20.0376C0.168968 20.0037 0.149902 19.9577 0.149902 19.9097V5.37539C0.149902 5.32739 0.168968 5.28135 0.202904 5.24741C0.236841 5.21347 0.282869 5.1944 0.330863 5.1944H7.68725V0.970617C7.68777 0.922963 7.70707 0.877439 7.74095 0.843928C7.77483 0.810417 7.82056 0.791623 7.86821 0.791626Z" fill="#555555" stroke="#555555" stroke-width="0.3"/>
<path d="M11.0975 11.889H13.255C13.303 11.889 13.3491 11.9081 13.383 11.942C13.4169 11.976 13.436 12.022 13.436 12.07C13.436 12.118 13.4169 12.1641 13.383 12.198C13.3491 12.232 13.303 12.251 13.255 12.251H11.2785V13.9199C11.2785 13.9679 11.2594 14.014 11.2255 14.0479C11.1915 14.0819 11.1455 14.1009 11.0975 14.1009H0.329886C0.281892 14.1009 0.235864 14.0819 0.201928 14.0479C0.167991 14.014 0.148926 13.9679 0.148926 13.9199C0.148926 13.8719 0.167991 13.8259 0.201928 13.792C0.235864 13.758 0.281892 13.7389 0.329886 13.7389H10.9166V12.069C10.9168 12.0212 10.936 11.9754 10.9699 11.9417C11.0038 11.908 11.0497 11.889 11.0975 11.889Z" fill="#555555" stroke="#555555" stroke-width="0.3"/>
<path d="M16.1175 11.889H17.8795C17.9275 11.889 17.9736 11.9081 18.0075 11.9421C18.0415 11.976 18.0605 12.022 18.0605 12.07C18.0605 12.118 18.0415 12.1641 18.0075 12.198C17.9736 12.232 17.9275 12.251 17.8795 12.251H16.1175C16.0695 12.251 16.0235 12.232 15.9895 12.198C15.9556 12.1641 15.9365 12.118 15.9365 12.07C15.9365 12.022 15.9556 11.976 15.9895 11.9421C16.0235 11.9081 16.0695 11.889 16.1175 11.889Z" fill="#555555" stroke="#555555" stroke-width="0.3"/>
<path d="M11.0975 16.4698C11.1455 16.4698 11.1915 16.4889 11.2255 16.5229C11.2594 16.5568 11.2785 16.6028 11.2785 16.6508V19.9098C11.2785 19.9579 11.2594 20.0039 11.2255 20.0378C11.1915 20.0718 11.1455 20.0908 11.0975 20.0908C11.0495 20.0908 11.0035 20.0718 10.9695 20.0378C10.9356 20.0039 10.9165 19.9579 10.9165 19.9098V16.6508C10.9165 16.6028 10.9356 16.5568 10.9695 16.5229C11.0035 16.4889 11.0495 16.4698 11.0975 16.4698Z" fill="#555555" stroke="#555555" stroke-width="0.3"/>
</svg>
