<svg width="28" height="23" viewBox="0 0 28 23" fill="none" xmlns="http://www.w3.org/2000/svg">
<path d="M25.3651 18.8115H2.32938C1.88589 18.8112 1.46063 18.635 1.14694 18.3216C0.833257 18.0081 0.65678 17.583 0.65625 17.1395L0.65625 2.2345C0.65678 1.79105 0.833257 1.36592 1.14694 1.05245C1.46063 0.738974 1.88589 0.562765 2.32938 0.5625H25.3651C25.8084 0.563029 26.2334 0.739356 26.5469 1.0528C26.8604 1.36625 27.0367 1.79122 27.0373 2.2345V17.1445C27.0354 17.5869 26.8585 18.0106 26.5452 18.323C26.2318 18.6353 25.8076 18.811 25.3651 18.8115ZM2.32938 1.3625C2.09817 1.36276 1.87651 1.45472 1.71303 1.6182C1.54954 1.78167 1.45758 2.00331 1.45731 2.2345V17.1445C1.45758 17.3757 1.54954 17.5973 1.71303 17.7608C1.87651 17.9243 2.09817 18.0162 2.32938 18.0165H25.3651C25.5962 18.016 25.8176 17.9239 25.9808 17.7605C26.1441 17.597 26.2359 17.3755 26.2362 17.1445V2.2345C26.2359 2.00349 26.1441 1.78199 25.9808 1.61855C25.8176 1.4551 25.5962 1.36303 25.3651 1.3625H2.32938Z" fill="#555555"/>
<path d="M24.67 16.0036H3.02338C2.89747 16.0033 2.7768 15.9532 2.68777 15.8641C2.59874 15.7751 2.5486 15.6545 2.54834 15.5286V2.67056C2.5486 2.54466 2.59874 2.424 2.68777 2.33497C2.7768 2.24595 2.89747 2.19582 3.02338 2.19556H24.67C24.7959 2.19582 24.9166 2.24595 25.0056 2.33497C25.0947 2.424 25.1448 2.54466 25.1451 2.67056V15.5276C25.1451 15.6536 25.095 15.7745 25.006 15.8638C24.9169 15.953 24.7961 16.0033 24.67 16.0036ZM3.3494 15.2036H24.345V2.99556H3.3484L3.3494 15.2036Z" fill="#555555"/>
<path d="M5.77664 22.0625C5.70642 22.0622 5.6375 22.0436 5.57664 22.0085C5.53119 21.9822 5.49138 21.9471 5.45949 21.9053C5.42761 21.8635 5.40426 21.8159 5.3908 21.7651C5.37733 21.7143 5.37401 21.6613 5.38101 21.6092C5.38802 21.5572 5.40523 21.507 5.43164 21.4615C5.50164 21.3415 7.17764 18.5155 10.0586 18.0185C10.1105 18.0095 10.1635 18.0107 10.2149 18.0222C10.2662 18.0337 10.3147 18.0552 10.3578 18.0855C10.4008 18.1158 10.4374 18.1543 10.4655 18.1987C10.4936 18.2432 10.5127 18.2927 10.5216 18.3445C10.5307 18.3964 10.5294 18.4494 10.5179 18.5008C10.5065 18.5521 10.4849 18.6006 10.4547 18.6437C10.4244 18.6867 10.3859 18.7233 10.3415 18.7514C10.297 18.7795 10.2475 18.7986 10.1956 18.8075C7.67764 19.2425 6.13964 21.8385 6.12464 21.8655C6.08902 21.926 6.03811 21.9761 5.97703 22.0106C5.91594 22.0452 5.84683 22.0631 5.77664 22.0625Z" fill="#555555"/>
<path d="M21.9164 22.0625C21.8463 22.0625 21.7774 22.044 21.7166 22.0089C21.6559 21.9738 21.6055 21.9233 21.5704 21.8625C21.5554 21.8365 20.0074 19.2385 17.4984 18.8045C17.4466 18.7956 17.3971 18.7764 17.3527 18.7483C17.3082 18.7202 17.2698 18.6836 17.2395 18.6406C17.2092 18.5976 17.1877 18.549 17.1762 18.4977C17.1647 18.4464 17.1634 18.3934 17.1724 18.3415C17.1814 18.2897 17.2005 18.2402 17.2287 18.1958C17.2568 18.1514 17.2934 18.1129 17.3364 18.0827C17.3794 18.0524 17.4279 18.0309 17.4792 18.0194C17.5305 18.0078 17.5836 18.0066 17.6354 18.0155C20.5174 18.5155 22.1924 21.3385 22.2624 21.4585C22.2975 21.5193 22.3159 21.5881 22.316 21.6582C22.3161 21.7283 22.2977 21.7972 22.2628 21.8579C22.2278 21.9187 22.1775 21.9692 22.1169 22.0044C22.0563 22.0396 21.9875 22.0583 21.9174 22.0585L21.9164 22.0625Z" fill="#555555"/>
<path d="M14.177 17.4115H13.523C13.417 17.4115 13.3152 17.3693 13.2402 17.2943C13.1652 17.2193 13.123 17.1175 13.123 17.0114C13.123 16.9054 13.1652 16.8036 13.2402 16.7286C13.3152 16.6536 13.417 16.6115 13.523 16.6115H14.177C14.2831 16.6115 14.3849 16.6536 14.4599 16.7286C14.5349 16.8036 14.577 16.9054 14.577 17.0114C14.577 17.1175 14.5349 17.2193 14.4599 17.2943C14.3849 17.3693 14.2831 17.4115 14.177 17.4115Z" fill="#555555"/>
<path d="M12.8066 6.40852H7.02158C6.9155 6.40852 6.81375 6.36638 6.73874 6.29136C6.66372 6.21635 6.62158 6.11461 6.62158 6.00852C6.62158 5.90243 6.66372 5.80069 6.73874 5.72568C6.81375 5.65066 6.9155 5.60852 7.02158 5.60852H12.8066C12.9127 5.60852 13.0144 5.65066 13.0894 5.72568C13.1644 5.80069 13.2066 5.90243 13.2066 6.00852C13.2066 6.11461 13.1644 6.21635 13.0894 6.29136C13.0144 6.36638 12.9127 6.40852 12.8066 6.40852Z" fill="#555555"/>
<path d="M9.91416 13.0155C9.86163 13.0155 9.80962 13.0052 9.76109 12.9851C9.71256 12.965 9.66846 12.9355 9.63132 12.8984C9.59417 12.8612 9.56471 12.8171 9.54461 12.7686C9.52451 12.7201 9.51416 12.668 9.51416 12.6155V6.00852C9.51416 5.90243 9.5563 5.80069 9.63132 5.72568C9.70633 5.65066 9.80807 5.60852 9.91416 5.60852C10.0202 5.60852 10.122 5.65066 10.197 5.72568C10.272 5.80069 10.3142 5.90243 10.3142 6.00852V12.6155C10.3142 12.7216 10.272 12.8233 10.197 12.8984C10.122 12.9734 10.0202 13.0155 9.91416 13.0155Z" fill="#555555"/>
<path d="M17.7274 13.1706C17.6494 13.1706 17.5731 13.1477 17.5079 13.1049C17.4427 13.0621 17.3915 13.0011 17.3604 12.9296L14.4174 6.16856C14.3965 6.12036 14.3852 6.06852 14.3843 6.01597C14.3834 5.96343 14.3929 5.91122 14.4121 5.86233C14.4314 5.81344 14.4601 5.76882 14.4966 5.73103C14.5331 5.69323 14.5767 5.663 14.6249 5.64205C14.6731 5.62111 14.725 5.60986 14.7775 5.60895C14.8301 5.60804 14.8823 5.61749 14.9312 5.63676C14.9801 5.65603 15.0247 5.68474 15.0625 5.72125C15.1003 5.75776 15.1305 5.80136 15.1514 5.84956L17.7274 11.7676L20.3034 5.84856C20.3245 5.80036 20.3547 5.75677 20.3926 5.72028C20.4305 5.68378 20.4751 5.65511 20.5241 5.63588C20.573 5.61665 20.6253 5.60725 20.6778 5.60822C20.7304 5.60919 20.7823 5.6205 20.8305 5.64152C20.8787 5.66253 20.9222 5.69283 20.9587 5.73069C20.9952 5.76855 21.0239 5.81323 21.0431 5.86217C21.0623 5.91111 21.0717 5.96336 21.0708 6.01593C21.0698 6.0685 21.0585 6.12036 21.0374 6.16856L18.0944 12.9296C18.0634 13.0011 18.0122 13.0621 17.947 13.1049C17.8818 13.1477 17.8055 13.1706 17.7274 13.1706Z" fill="#555555"/>
</svg>
