<svg width="27" height="24" viewBox="0 0 27 24" fill="none" xmlns="http://www.w3.org/2000/svg">
<path d="M23.8161 21.3199C23.71 21.3199 23.6083 21.2777 23.5333 21.2027C23.4583 21.1277 23.4162 21.026 23.4162 20.92V8.2363L17.3921 8.2263C17.286 8.2263 17.1843 8.18417 17.1093 8.10918C17.0343 8.03418 16.9922 7.93247 16.9922 7.82641C16.9922 7.72035 17.0343 7.61864 17.1093 7.54364C17.1843 7.46865 17.286 7.42651 17.3921 7.42651H23.4062C23.6208 7.42678 23.8265 7.51221 23.9781 7.66405C24.1298 7.81588 24.215 8.0217 24.215 8.2363V20.92C24.215 21.0258 24.173 21.1274 24.0982 21.2024C24.0234 21.2773 23.922 21.3196 23.8161 21.3199Z" fill="#555555"/>
<path d="M3.49656 21.3199C3.3905 21.3199 3.28879 21.2777 3.2138 21.2027C3.13881 21.1277 3.09668 21.026 3.09668 20.92V8.2363C3.09694 8.02161 3.18234 7.81579 3.33414 7.66399C3.48594 7.51218 3.69175 7.42678 3.90643 7.42651H9.92058C10.0266 7.42651 10.1283 7.46865 10.2033 7.54364C10.2783 7.61864 10.3205 7.72035 10.3205 7.82641C10.3205 7.93247 10.2783 8.03418 10.2033 8.10918C10.1283 8.18417 10.0266 8.2263 9.92058 8.2263H3.90643L3.89643 20.923C3.89564 21.0285 3.85316 21.1294 3.77826 21.2038C3.70335 21.2781 3.60209 21.3199 3.49656 21.3199Z" fill="#555555"/>
<path d="M24.9259 23.6963H2.38581C2.1591 23.6971 1.93596 23.6399 1.73755 23.5302C1.53915 23.4205 1.37207 23.2619 1.25216 23.0695C1.23192 23.0365 1.21644 23.0008 1.20617 22.9635L0.670334 21.027C0.653855 20.9676 0.651313 20.9053 0.662908 20.8448C0.674502 20.7843 0.699919 20.7273 0.737175 20.6782C0.774431 20.6291 0.822519 20.5893 0.877687 20.5619C0.932855 20.5345 0.993611 20.5202 1.05522 20.5201H10.4733C10.5354 20.5201 10.5966 20.5346 10.6521 20.5624C10.7077 20.5901 10.756 20.6304 10.7932 20.6801C10.8572 20.7654 10.94 20.8347 11.0352 20.8828C11.1304 20.9308 11.2354 20.9562 11.3421 20.957H15.9686C16.0754 20.9569 16.1806 20.9318 16.2759 20.8837C16.3712 20.8356 16.4539 20.7659 16.5175 20.6801C16.5547 20.6304 16.603 20.5901 16.6585 20.5624C16.7141 20.5346 16.7753 20.5201 16.8374 20.5201H26.2555C26.3172 20.5201 26.378 20.5342 26.4333 20.5616C26.4886 20.5889 26.5368 20.6287 26.5742 20.6778C26.6116 20.7269 26.6371 20.7839 26.6487 20.8445C26.6604 20.9051 26.6578 20.9676 26.6413 21.027L26.1055 22.9635C26.0951 23.0009 26.0792 23.0366 26.0585 23.0695C25.9386 23.2617 25.7717 23.4201 25.5735 23.5298C25.3753 23.6395 25.1524 23.6968 24.9259 23.6963ZM1.95894 22.6866C2.00886 22.7521 2.0733 22.8052 2.1472 22.8416C2.22109 22.878 2.30242 22.8968 2.38481 22.8965H24.9249C25.0074 22.8969 25.0889 22.8782 25.163 22.8417C25.237 22.8053 25.3017 22.7522 25.3517 22.6866L25.7296 21.3209H17.0173C16.739 21.5991 16.3621 21.7561 15.9686 21.7578H11.3421C10.9486 21.7561 10.5717 21.5991 10.2934 21.3209H1.58105L1.95894 22.6866Z" fill="#555555"/>
<path d="M13.656 12.7071C13.203 12.7071 12.7602 12.5728 12.3836 12.3211C12.007 12.0695 11.7134 11.7118 11.5401 11.2932C11.3667 10.8747 11.3214 10.4142 11.4097 9.96991C11.4981 9.52561 11.7162 9.1175 12.0365 8.79719C12.3568 8.47687 12.7649 8.25873 13.2092 8.17035C13.6535 8.08198 14.114 8.12734 14.5325 8.30069C14.951 8.47404 15.3087 8.76761 15.5603 9.14426C15.812 9.52092 15.9463 9.96374 15.9463 10.4167C15.9458 11.024 15.7043 11.6063 15.2749 12.0357C14.8455 12.4651 14.2633 12.7066 13.656 12.7071ZM13.656 8.92613C13.3612 8.92613 13.073 9.01356 12.8279 9.17735C12.5828 9.34114 12.3918 9.57394 12.2789 9.84631C12.1661 10.1187 12.1366 10.4184 12.1941 10.7075C12.2516 10.9967 12.3936 11.2623 12.602 11.4708C12.8105 11.6792 13.0761 11.8212 13.3652 11.8787C13.6544 11.9362 13.9541 11.9067 14.2264 11.7939C14.4988 11.6811 14.7316 11.49 14.8954 11.2449C15.0591 10.9997 15.1466 10.7116 15.1466 10.4167C15.1463 10.0215 14.9892 9.6425 14.7097 9.36302C14.4302 9.08353 14.0513 8.9264 13.656 8.92613Z" fill="#555555"/>
<path d="M8.27408 6.55974C8.18412 6.55979 8.09677 6.5295 8.02615 6.47377C7.98492 6.44122 7.9505 6.40086 7.92486 6.35501C7.89923 6.30915 7.88288 6.25869 7.87675 6.20651C7.87063 6.15434 7.87484 6.10146 7.88915 6.05091C7.90347 6.00037 7.9276 5.95313 7.96017 5.91192C8.63884 5.05174 9.5036 4.35656 10.4895 3.87861C11.4754 3.40065 12.5568 3.15234 13.6524 3.15234C14.7481 3.15234 15.8294 3.40065 16.8153 3.87861C17.8012 4.35656 18.666 5.05174 19.3447 5.91192C19.411 5.99504 19.4415 6.10109 19.4296 6.20674C19.4177 6.31239 19.3643 6.40898 19.2812 6.47527C19.24 6.50809 19.1928 6.53248 19.1422 6.54706C19.0916 6.56163 19.0387 6.56609 18.9864 6.5602C18.8807 6.54829 18.7841 6.49491 18.7179 6.41178C18.1141 5.64629 17.3446 5.02761 16.4674 4.60225C15.5901 4.17689 14.6279 3.9559 13.6529 3.9559C12.678 3.9559 11.7157 4.17689 10.8385 4.60225C9.96122 5.02761 9.19178 5.64629 8.58798 6.41178C8.55013 6.45844 8.50226 6.49598 8.44791 6.52159C8.39357 6.54721 8.33415 6.56025 8.27408 6.55974Z" fill="#555555"/>
<path d="M6.6795 4.96112C6.60326 4.96118 6.52858 4.93945 6.46428 4.89847C6.39998 4.8575 6.34874 4.79899 6.31659 4.72985C6.28444 4.66072 6.27272 4.58383 6.28282 4.50825C6.29292 4.43268 6.32442 4.36156 6.3736 4.3033C7.26595 3.23946 8.38048 2.38401 9.63884 1.79709C10.8972 1.21016 12.2689 0.906006 13.6574 0.906006C15.0459 0.906006 16.4175 1.21016 17.6759 1.79709C18.9342 2.38401 20.0488 3.23946 20.9411 4.3033C20.9749 4.34353 21.0005 4.39004 21.0163 4.44015C21.0321 4.49027 21.0379 4.54301 21.0334 4.59537C21.0288 4.64772 21.014 4.69867 20.9898 4.74531C20.9656 4.79194 20.9324 4.83334 20.8921 4.86715C20.8519 4.90095 20.8054 4.9265 20.7553 4.94234C20.7052 4.95817 20.6524 4.96398 20.6001 4.95943C20.5477 4.95488 20.4968 4.94006 20.4501 4.91583C20.4035 4.89159 20.3621 4.8584 20.3283 4.81816C19.511 3.84385 18.4902 3.06039 17.3378 2.52285C16.1853 1.98532 14.929 1.70676 13.6574 1.70676C12.3857 1.70676 11.1294 1.98532 9.97695 2.52285C8.82446 3.06039 7.80369 3.84385 6.98641 4.81816C6.94882 4.86299 6.90186 4.89902 6.84883 4.92373C6.7958 4.94843 6.738 4.96119 6.6795 4.96112Z" fill="#555555"/>
<path d="M9.92061 8.20233C9.84742 8.20228 9.77565 8.18214 9.71311 8.14411C9.65058 8.10609 9.59968 8.05162 9.56596 7.98666C9.53224 7.92169 9.517 7.84872 9.52189 7.77569C9.52679 7.70266 9.55163 7.63238 9.59371 7.57249C10.0506 6.91849 10.6585 6.38443 11.3659 6.01567C12.0733 5.64691 12.8592 5.45435 13.657 5.45435C14.4547 5.45435 15.2406 5.64691 15.948 6.01567C16.6554 6.38443 17.2634 6.91849 17.7202 7.57249C17.7517 7.61542 17.7743 7.66421 17.7867 7.71599C17.799 7.76777 17.8009 7.82149 17.7923 7.87402C17.7836 7.92655 17.7646 7.97681 17.7362 8.02188C17.7079 8.06694 17.6708 8.10589 17.6272 8.13644C17.5836 8.16699 17.5344 8.18853 17.4823 8.19979C17.4303 8.21106 17.3766 8.21182 17.3242 8.20203C17.2719 8.19224 17.2221 8.17211 17.1776 8.1428C17.1332 8.1135 17.095 8.07561 17.0654 8.03137C16.6825 7.48257 16.1726 7.03436 15.5793 6.72488C14.986 6.4154 14.3267 6.25378 13.6575 6.25378C12.9883 6.25378 12.329 6.4154 11.7356 6.72488C11.1423 7.03436 10.6325 7.48257 10.2495 8.03137C10.2126 8.0843 10.1633 8.12749 10.1061 8.15726C10.0488 8.18703 9.98516 8.20249 9.92061 8.20233Z" fill="#555555"/>
<path d="M8.27408 6.55974C8.18412 6.55979 8.09677 6.5295 8.02615 6.47377C7.98492 6.44122 7.9505 6.40086 7.92486 6.35501C7.89923 6.30915 7.88288 6.25869 7.87675 6.20651C7.87063 6.15434 7.87484 6.10146 7.88915 6.05091C7.90347 6.00037 7.9276 5.95313 7.96017 5.91192C8.63884 5.05174 9.5036 4.35656 10.4895 3.87861C11.4754 3.40065 12.5568 3.15234 13.6524 3.15234C14.7481 3.15234 15.8294 3.40065 16.8153 3.87861C17.8012 4.35656 18.666 5.05174 19.3447 5.91192C19.411 5.99504 19.4415 6.10109 19.4296 6.20674C19.4177 6.31239 19.3643 6.40898 19.2812 6.47527C19.24 6.50809 19.1928 6.53248 19.1422 6.54706C19.0916 6.56163 19.0387 6.56609 18.9864 6.5602C18.8807 6.54829 18.7841 6.49491 18.7179 6.41178C18.1141 5.64629 17.3446 5.02761 16.4674 4.60225C15.5901 4.17689 14.6279 3.9559 13.6529 3.9559C12.678 3.9559 11.7157 4.17689 10.8385 4.60225C9.96122 5.02761 9.19178 5.64629 8.58798 6.41178C8.55013 6.45844 8.50226 6.49598 8.44791 6.52159C8.39357 6.54721 8.33415 6.56025 8.27408 6.55974Z" fill="#555555"/>
<path d="M16.9333 15.9143H10.3803C10.2743 15.9143 10.1726 15.8722 10.0976 15.7972C10.0226 15.7222 9.98047 15.6205 9.98047 15.5144C9.98047 15.4083 10.0226 15.3066 10.0976 15.2316C10.1726 15.1566 10.2743 15.1145 10.3803 15.1145H16.9333C17.0394 15.1145 17.1411 15.1566 17.2161 15.2316C17.2911 15.3066 17.3332 15.4083 17.3332 15.5144C17.3332 15.6205 17.2911 15.7222 17.2161 15.7972C17.1411 15.8722 17.0394 15.9143 16.9333 15.9143Z" fill="#555555"/>
<path d="M16.9333 18.0737H10.3803C10.2743 18.0737 10.1726 18.0316 10.0976 17.9566C10.0226 17.8816 9.98047 17.7799 9.98047 17.6738C9.98047 17.5678 10.0226 17.466 10.0976 17.3911C10.1726 17.3161 10.2743 17.2739 10.3803 17.2739H16.9333C17.0394 17.2739 17.1411 17.3161 17.2161 17.3911C17.2911 17.466 17.3332 17.5678 17.3332 17.6738C17.3332 17.7799 17.2911 17.8816 17.2161 17.9566C17.1411 18.0316 17.0394 18.0737 16.9333 18.0737Z" fill="#555555"/>
</svg>
